<svg xmlns="http://www.w3.org/2000/svg" xmlns:xlink="http://www.w3.org/1999/xlink" version="1.1" enable-background="new 0 0 100 100" xml:space="preserve" width="70" height="90" style=""><rect id="backgroundrect" width="100%" height="100%" x="0" y="0" fill="white" stroke="none"/><g class="currentLayer" style=""><title>Layer 1</title><g id="svg_1" class=""><path fill="white" d="M65.15999612426758,3.600999740600585 h-60.48 c-0.5950000000000001,0 -1.08,0.48400000000000004 -1.08,1.08 v80.641 c0,0.5950000000000001 0.48400000000000004,1.079 1.08,1.079 h60.48 c0.5960000000000001,0 1.08,-0.48400000000000004 1.08,-1.079 V4.680999740600585 C66.23999612426758,4.084999740600587 65.75499612426758,3.600999740600585 65.15999612426758,3.600999740600585 zM27.895996124267576,20.317999740600587 c0.008000000000000002,-0.0020000000000000005 0.016000000000000004,-0.0020000000000000005 0.024000000000000004,-0.003000000000000001 c0,-0.004000000000000001 0,-0.009000000000000003 0.0010000000000000002,-0.013000000000000003 h-0.013000000000000003 c0,-0.552 0.07400000000000001,-1.086 0.2,-1.6 c0.08300000000000002,-0.986 0.29800000000000004,-1.895 0.6750000000000002,-2.621 c1.122,-2.159 3.584,-3.457 6.851,-3.237 c3.749,0.251 6.126,2.608 6.1370000000000005,6.663 c0,0.28400000000000003 -0.010000000000000002,0.56 -0.025000000000000005,0.8330000000000001 c0.43100000000000005,0.16300000000000003 0.6210000000000001,1.138 0.42100000000000004,2.257 c-0.18500000000000003,1.031 -0.6360000000000001,1.838 -1.067,1.964 c-0.56,1.5110000000000001 -1.441,2.98 -2.532,4.07 c-0.6500000000000001,0.6500000000000001 -1.375,1.1640000000000001 -2.149,1.47 c-0.514,0.20400000000000001 -1.051,0.31700000000000006 -1.602,0.31700000000000006 c-0.551,0 -1.088,-0.11300000000000002 -1.602,-0.31700000000000006 c-0.7480000000000001,-0.29600000000000004 -1.45,-0.786 -2.083,-1.404 c-1.119,-1.093 -2.022,-2.585 -2.595,-4.122 c-0.44900000000000007,-0.06300000000000001 -0.935,-0.8970000000000001 -1.127,-1.9769999999999999 C27.199996124267578,21.420999740600585 27.41799612426758,20.400999740600586 27.895996124267576,20.317999740600587 zM21.362996124267575,36.320999740600584 c1.55,-5.335 4.416,-5.518 5.032,-5.663 c1.214,-0.28400000000000003 2.685,-0.16300000000000003 3.468,-0.40800000000000003 c0.138,1.1480000000000001 2.349,2.062 5.056,2.062 c2.706,0 4.917,-0.913 5.055,-2.062 c0.784,0.24500000000000002 2.255,0.12400000000000001 3.47,0.40800000000000003 c0.6160000000000001,0.14500000000000002 3.481,0.32800000000000007 5.032,5.663 c0.21000000000000002,0.7250000000000001 0.136,1.512 -0.20600000000000002,2.158 c-1.271,2.402 -7.9510000000000005,3.141 -13.351,3.14 c-5.4,0.0010000000000000002 -12.081,-0.7390000000000001 -13.35,-3.14 C21.22599612426758,37.832999740600584 21.15299612426758,37.045999740600585 21.362996124267575,36.320999740600584 zM56.553996124267584,77.18199974060059 H13.284996124267579 c-1.193,0 -2.16,-0.9680000000000001 -2.16,-2.16 s0.9670000000000001,-2.16 2.16,-2.16 H56.553996124267584 c1.193,0 2.16,0.9680000000000001 2.16,2.16 S57.74699612426758,77.18199974060059 56.553996124267584,77.18199974060059 zM56.553996124267584,65.66099974060059 H13.284996124267579 c-1.193,0 -2.16,-0.9670000000000001 -2.16,-2.16 c0,-1.192 0.9670000000000001,-2.159 2.16,-2.159 H56.553996124267584 c1.193,0 2.16,0.9670000000000001 2.16,2.159 C58.71399612426758,64.69399974060059 57.74699612426758,65.66099974060059 56.553996124267584,65.66099974060059 zM56.553996124267584,54.14199974060059 H13.284996124267579 c-1.193,0 -2.16,-0.9680000000000001 -2.16,-2.16 s0.9670000000000001,-2.16 2.16,-2.16 H56.553996124267584 c1.193,0 2.16,0.9680000000000001 2.16,2.16 S57.74699612426758,54.14199974060059 56.553996124267584,54.14199974060059 z" id="svg_2"/><path fill="white" d="M29.12899612426758,23.948999740600588 c0.10900000000000001,0.10900000000000001 0.22200000000000003,0.16300000000000003 0.33000000000000007,0.14400000000000002 c0.05200000000000001,-0.009000000000000003 0.09900000000000003,-0.035 0.14200000000000002,-0.07400000000000001 c0.525,1.6320000000000001 1.532,3.26 2.801,4.231 c0.7300000000000001,0.561 1.549,0.903 2.4130000000000003,0.903 c0.8840000000000001,0 1.7200000000000002,-0.35900000000000004 2.464,-0.9400000000000001 c1.246,-0.976 2.233,-2.583 2.7510000000000003,-4.194 c0.04300000000000001,0.04000000000000001 0.09100000000000003,0.06500000000000002 0.14300000000000002,0.07400000000000001 c0.09300000000000003,0.016000000000000004 0.18900000000000003,-0.021000000000000005 0.28500000000000003,-0.101 c0.23600000000000002,-0.201 0.46,-0.6710000000000002 0.5630000000000001,-1.242 c0.132,-0.7440000000000001 0.012000000000000002,-1.3960000000000001 -0.268,-1.528 c-0.021000000000000005,-0.010000000000000002 -0.04100000000000001,-0.016000000000000004 -0.06300000000000001,-0.020000000000000004 c-0.08800000000000002,-0.015000000000000003 -0.17800000000000002,0.017000000000000005 -0.266,0.08600000000000002 l-0.005000000000000001,0.006000000000000002 c0,0 -0.0010000000000000002,0 -0.0010000000000000002,-0.0010000000000000002 c-0.0020000000000000005,0.0010000000000000002 -0.0020000000000000005,0.0010000000000000002 -0.0020000000000000005,0.0020000000000000005 c-0.0010000000000000002,-0.005000000000000001 -0.0010000000000000002,-0.011000000000000003 -0.0010000000000000002,-0.016000000000000004 c-0.3370000000000001,-1.276 -0.7610000000000001,-2.058 -1.197,-2.523 c-0.08500000000000002,-0.04600000000000001 -0.17400000000000002,-0.08700000000000002 -0.271,-0.11500000000000002 c-0.011000000000000003,0.18800000000000003 0.203,0.47500000000000003 0.22600000000000003,0.7530000000000001 c-0.6050000000000001,-0.28300000000000003 -1.186,-0.7220000000000001 -2.032,-0.7530000000000001 c-0.19800000000000004,-0.007000000000000002 -0.41200000000000003,-0.005000000000000001 -0.6330000000000001,0 c-2.043,0.7300000000000001 -4.289,-0.09600000000000003 -4.289,-0.09600000000000003 c-2.563,-0.23800000000000002 -2.9690000000000003,2.424 -3,2.729 c0,0.007000000000000002 0,0.015000000000000003 -0.0010000000000000002,0.021000000000000005 c-0.09100000000000003,-0.07300000000000001 -0.18400000000000002,-0.10700000000000001 -0.273,-0.09200000000000003 c-0.03900000000000001,0.007000000000000002 -0.07600000000000001,0.022000000000000006 -0.10900000000000001,0.04700000000000001 c-0.08000000000000002,0.05700000000000001 -0.14200000000000002,0.16500000000000004 -0.18800000000000003,0.30200000000000005 c-0.025000000000000005,0.35800000000000004 -0.04200000000000001,0.7210000000000001 -0.04700000000000001,1.095 c0.005000000000000001,0.035 0.009000000000000003,0.06900000000000002 0.015000000000000003,0.10400000000000001 C28.70799612426758,23.282999740600587 28.90999612426758,23.728999740600585 29.12899612426758,23.948999740600588 z" id="svg_3"/><path d="M65.15999612426758,-2.5939941394881316e-7 h-60.48 c-2.58,0 -4.68,2.1 -4.68,4.68 v80.641 c0,2.58 2.1,4.68 4.68,4.68 h60.48 c2.58,0 4.68,-2.1 4.68,-4.68 V4.680999740600585 C69.83899612426758,2.0999997406005857 67.73999612426758,-2.5939941394881316e-7 65.15999612426758,-2.5939941394881316e-7 zM66.23999612426758,85.32099974060058 c0,0.5950000000000001 -0.48400000000000004,1.079 -1.08,1.079 h-60.48 c-0.5950000000000001,0 -1.08,-0.48400000000000004 -1.08,-1.079 V4.680999740600585 c0,-0.5960000000000001 0.48400000000000004,-1.08 1.08,-1.08 h60.48 c0.5960000000000001,0 1.08,0.48400000000000004 1.08,1.08 V85.32099974060058 z" id="svg_4"/><path d="M56.553996124267584,49.820999740600584 H13.284996124267579 c-1.193,0 -2.16,0.9680000000000001 -2.16,2.16 s0.9670000000000001,2.16 2.16,2.16 H56.553996124267584 c1.193,0 2.16,-0.9680000000000001 2.16,-2.16 S57.74699612426758,49.820999740600584 56.553996124267584,49.820999740600584 z" id="svg_5"/><path d="M56.553996124267584,61.341999740600585 H13.284996124267579 c-1.193,0 -2.16,0.9670000000000001 -2.16,2.159 c0,1.193 0.9670000000000001,2.16 2.16,2.16 H56.553996124267584 c1.193,0 2.16,-0.9670000000000001 2.16,-2.16 C58.71399612426758,62.30899974060058 57.74699612426758,61.341999740600585 56.553996124267584,61.341999740600585 z" id="svg_6"/><path d="M56.553996124267584,72.86099974060059 H13.284996124267579 c-1.193,0 -2.16,0.9680000000000001 -2.16,2.16 s0.9670000000000001,2.16 2.16,2.16 H56.553996124267584 c1.193,0 2.16,-0.9680000000000001 2.16,-2.16 S57.74699612426758,72.86099974060059 56.553996124267584,72.86099974060059 z" id="svg_7"/><path d="M34.91899612426758,41.618999740600586 c5.399,0.0010000000000000002 12.08,-0.7380000000000001 13.351,-3.14 c0.3420000000000001,-0.6460000000000001 0.41600000000000004,-1.433 0.20600000000000002,-2.158 c-1.5510000000000002,-5.335 -4.416,-5.518 -5.032,-5.663 c-1.215,-0.28400000000000003 -2.686,-0.16300000000000003 -3.47,-0.40800000000000003 c-0.138,1.1480000000000001 -2.349,2.062 -5.055,2.062 c-2.707,0 -4.917,-0.913 -5.056,-2.062 c-0.784,0.24500000000000002 -2.254,0.12400000000000001 -3.468,0.40800000000000003 c-0.6170000000000001,0.14500000000000002 -3.482,0.32800000000000007 -5.032,5.663 c-0.21000000000000002,0.7250000000000001 -0.137,1.512 0.20600000000000002,2.158 C22.83899612426758,40.87999974060059 29.51899612426758,41.61999974060058 34.91899612426758,41.618999740600586 z" id="svg_8"/><path d="M28.53699612426758,24.572999740600586 c0.5720000000000001,1.537 1.476,3.029 2.595,4.122 c0.6330000000000001,0.6190000000000001 1.334,1.108 2.083,1.404 c0.513,0.20400000000000001 1.05,0.31700000000000006 1.602,0.31700000000000006 c0.551,0 1.088,-0.11300000000000002 1.602,-0.31700000000000006 c0.774,-0.30600000000000005 1.499,-0.8200000000000001 2.149,-1.47 c1.091,-1.089 1.9729999999999999,-2.559 2.532,-4.07 c0.43200000000000005,-0.126 0.8830000000000001,-0.934 1.067,-1.964 c0.2,-1.119 0.010000000000000002,-2.094 -0.42100000000000004,-2.257 c0.016000000000000004,-0.273 0.025000000000000005,-0.549 0.025000000000000005,-0.8330000000000001 c-0.011000000000000003,-4.055 -2.388,-6.412 -6.1370000000000005,-6.663 c-3.267,-0.21900000000000003 -5.729,1.079 -6.851,3.237 c-0.37700000000000006,0.7270000000000001 -0.5920000000000001,1.6350000000000002 -0.6750000000000002,2.621 c-0.126,0.514 -0.2,1.048 -0.2,1.6 h0.013000000000000003 c-0.0010000000000000002,0.004000000000000001 -0.0010000000000000002,0.009000000000000003 -0.0010000000000000002,0.013000000000000003 c-0.008000000000000002,0.0010000000000000002 -0.016000000000000004,0.0010000000000000002 -0.024000000000000004,0.003000000000000001 c-0.47800000000000004,0.08300000000000002 -0.6960000000000002,1.103 -0.48600000000000004,2.277 C27.60199612426758,23.674999740600587 28.087996124267576,24.509999740600588 28.53699612426758,24.572999740600586 zM28.64499612426758,21.550999740600584 c0.04600000000000001,-0.138 0.10900000000000001,-0.24500000000000002 0.18800000000000003,-0.30200000000000005 c0.03400000000000001,-0.024000000000000004 0.07,-0.04000000000000001 0.10900000000000001,-0.04700000000000001 c0.08900000000000002,-0.016000000000000004 0.18200000000000002,0.019000000000000003 0.273,0.09200000000000003 c0.0010000000000000002,-0.007000000000000002 0.0010000000000000002,-0.014000000000000002 0.0010000000000000002,-0.021000000000000005 c0.03200000000000001,-0.30500000000000005 0.43800000000000006,-2.967 3,-2.729 c0,0 2.246,0.8260000000000001 4.289,0.09600000000000003 c0.22100000000000003,-0.004000000000000001 0.43500000000000005,-0.007000000000000002 0.6330000000000001,0 c0.8470000000000001,0.03200000000000001 1.427,0.47100000000000003 2.032,0.7530000000000001 c-0.022000000000000006,-0.279 -0.23600000000000002,-0.5650000000000001 -0.22600000000000003,-0.7530000000000001 c0.09700000000000003,0.028000000000000004 0.18600000000000003,0.06900000000000002 0.271,0.11500000000000002 c0.43700000000000006,0.465 0.8600000000000001,1.247 1.197,2.523 c0,0.005000000000000001 0,0.011000000000000003 0.0010000000000000002,0.016000000000000004 c0,-0.0010000000000000002 0,-0.0010000000000000002 0.0020000000000000005,-0.0020000000000000005 c0,0.0010000000000000002 0.0010000000000000002,0.0010000000000000002 0.0010000000000000002,0.0010000000000000002 l0.005000000000000001,-0.006000000000000002 c0.08800000000000002,-0.06900000000000002 0.17800000000000002,-0.101 0.266,-0.08600000000000002 c0.022000000000000006,0.004000000000000001 0.04300000000000001,0.010000000000000002 0.06300000000000001,0.020000000000000004 c0.279,0.132 0.3990000000000001,0.784 0.268,1.528 c-0.10300000000000001,0.5710000000000001 -0.32600000000000007,1.041 -0.5630000000000001,1.242 c-0.09600000000000003,0.08000000000000002 -0.19200000000000003,0.11700000000000002 -0.28500000000000003,0.101 c-0.05200000000000001,-0.009000000000000003 -0.1,-0.035 -0.14300000000000002,-0.07400000000000001 c-0.518,1.612 -1.505,3.219 -2.7510000000000003,4.194 c-0.7440000000000001,0.5810000000000001 -1.58,0.9400000000000001 -2.464,0.9400000000000001 c-0.8640000000000001,0 -1.6820000000000002,-0.3420000000000001 -2.4130000000000003,-0.903 c-1.2690000000000001,-0.971 -2.275,-2.599 -2.801,-4.231 c-0.04300000000000001,0.03900000000000001 -0.09000000000000002,0.06500000000000002 -0.14200000000000002,0.07400000000000001 c-0.10800000000000001,0.019000000000000003 -0.22100000000000003,-0.035 -0.33000000000000007,-0.14400000000000002 c-0.22000000000000003,-0.22000000000000003 -0.42100000000000004,-0.6660000000000001 -0.516,-1.2 c-0.006000000000000002,-0.035 -0.010000000000000002,-0.06900000000000002 -0.015000000000000003,-0.10400000000000001 C28.60399612426758,22.270999740600587 28.61999612426758,21.908999740600585 28.64499612426758,21.550999740600584 z" id="svg_9"/></g></g></svg>