<svg xmlns="http://www.w3.org/2000/svg" xmlns:xlink="http://www.w3.org/1999/xlink" version="1.1" style="fill:white;" xml:space="preserve" width="19" height="22"><rect id="backgroundrect" width="100%" height="100%" x="0" y="0" fill="none" stroke="none" class="" style=""/><g class="currentLayer" style=""><title>Layer 1</title><path d="M17.848000053405762,1.7250000038146975 h-1.7240000000000002 h-2.7590000000000003 V0.6900000038146974 c0,-0.38100000000000006 -0.30900000000000005,-0.6900000000000002 -0.6900000000000002,-0.6900000000000002 H5.863000053405761 c-0.38100000000000006,0 -0.6900000000000002,0.30900000000000005 -0.6900000000000002,0.6900000000000002 v1.035 H2.4150000534057616 H0.690000053405762 c-0.38100000000000006,0 -0.6900000000000002,0.30900000000000005 -0.6900000000000002,0.6900000000000002 c0,0.38100000000000006 0.30900000000000005,0.6900000000000002 0.6900000000000002,0.6900000000000002 h1.035 v18.048 c0,0.38100000000000006 0.30900000000000005,0.6900000000000002 0.6900000000000002,0.6900000000000002 h13.709 c0.38100000000000006,0 0.6900000000000002,-0.30900000000000005 0.6900000000000002,-0.6900000000000002 V3.104000003814697 h1.035 c0.38100000000000006,0 0.6900000000000002,-0.30900000000000005 0.6900000000000002,-0.6900000000000002 C18.537000053405762,2.0340000038146973 18.229000053405763,1.7250000038146975 17.848000053405762,1.7250000038146975 zM6.553000053405762,1.3800000038146973 h5.432 v0.3440000000000001 H6.553000053405762 V1.3800000038146973 zM15.43400005340576,20.462000003814698 H3.1040000534057617 V3.104000003814697 h12.329 V20.462000003814698 z" id="svg_1" class=""/><path d="M5.777000053405761,17.5880000038147 c0.38100000000000006,0 0.6900000000000002,-0.30900000000000005 0.6900000000000002,-0.6900000000000002 V6.553000003814697 c0,-0.38100000000000006 -0.30900000000000005,-0.6900000000000002 -0.6900000000000002,-0.6900000000000002 s-0.6900000000000002,0.30900000000000005 -0.6900000000000002,0.6900000000000002 v10.346 C5.088000053405762,17.2800000038147 5.397000053405762,17.5880000038147 5.777000053405761,17.5880000038147 z" id="svg_2" class=""/><path d="M12.675000053405762,17.5880000038147 c0.38100000000000006,0 0.6900000000000002,-0.30900000000000005 0.6900000000000002,-0.6900000000000002 V6.553000003814697 c0,-0.38100000000000006 -0.30900000000000005,-0.6900000000000002 -0.6900000000000002,-0.6900000000000002 c-0.38100000000000006,0 -0.6900000000000002,0.30900000000000005 -0.6900000000000002,0.6900000000000002 v10.346 C11.985000053405761,17.2800000038147 12.294000053405762,17.5880000038147 12.675000053405762,17.5880000038147 z" id="svg_3" class=""/><path d="M9.269000053405762,17.5880000038147 c0.38100000000000006,0 0.6900000000000002,-0.30900000000000005 0.6900000000000002,-0.6900000000000002 V6.840000003814698 c0,-0.38100000000000006 -0.30900000000000005,-0.6900000000000002 -0.6900000000000002,-0.6900000000000002 c-0.38100000000000006,0 -0.6900000000000002,0.30900000000000005 -0.6900000000000002,0.6900000000000002 v10.059 C8.579000053405762,17.279000003814698 8.888000053405761,17.5880000038147 9.269000053405762,17.5880000038147 z" id="svg_4" class=""/></g></svg>